<?xml version="1.0" encoding="UTF-8"?> <svg xmlns="http://www.w3.org/2000/svg" xmlns:xlink="http://www.w3.org/1999/xlink" width="843.739" height="810" viewBox="0 0 843.739 810"><defs><linearGradient id="linear-gradient" y1="0.5" x2="1" y2="0.5" gradientUnits="objectBoundingBox"><stop offset="0" stop-color="#faceab"></stop><stop offset="1" stop-color="#f8b090"></stop></linearGradient></defs><g id="Learn-online-quran" transform="translate(0 0)"><g id="Group_913" data-name="Group 913" transform="translate(0 0)"><path id="Path_69" data-name="Path 69" d="M1289.757,163.159S871.248,124.071,812.3,378.484s372.917,474.338,372.917,474.338,474.337,312.064,449.371-78.016S1289.757,163.159,1289.757,163.159Z" transform="translate(-806.77 -161)" fill="#ecf1ee" opacity="0.44"></path></g><g id="Group_781" data-name="Group 781" transform="translate(199.195 148.612)"><path id="Path_2108" data-name="Path 2108" d="M1166.573,825.592h352.052c78.465-54.04,129.766-143.16,129.766-244.032,0-164.871-136.908-322.217-305.792-322.217S1036.807,416.689,1036.807,581.56C1036.807,682.432,1088.109,771.551,1166.573,825.592Z" transform="translate(-1020.327 -259.343)" fill="#e2f0e6"></path><path id="Path_2109" data-name="Path 2109" d="M1018.172,899.587c0-7.016,144.286-12.7,322.272-12.7s322.272,5.688,322.272,12.7-144.287,12.706-322.272,12.706S1018.172,906.6,1018.172,899.587Z" transform="translate(-1018.172 -332.433)" fill="#cce3eb" opacity="0.43"></path><g id="Group_747" data-name="Group 747" transform="translate(362.505 210.59)"><rect id="Rectangle_401" data-name="Rectangle 401" width="14.661" height="140.204" transform="translate(79.588 343.921) rotate(-180)" fill="#a8c4cc"></rect><rect id="Rectangle_402" data-name="Rectangle 402" width="14.661" height="19.71" transform="translate(79.588 223.427) rotate(-180)" fill="#84aeb8"></rect><path id="Rectangle_403" data-name="Rectangle 403" d="M0,0H139.907a0,0,0,0,1,0,0V3.261a9.605,9.605,0,0,1-9.605,9.605H9.605A9.605,9.605,0,0,1,0,3.261V0A0,0,0,0,1,0,0Z" transform="translate(139.907 356.836) rotate(-180)" fill="#a8c4cc"></path><path id="Path_2110" data-name="Path 2110" d="M1535.8,701.916H1434.2c36.97-13.276,22.668-138.348,15.834-185.759a15.846,15.846,0,0,1,15.7-18.1h67.674a27.724,27.724,0,0,1,27.478,23.927c5.939,43.077,15.3,132.4-3.239,166.984A24.74,24.74,0,0,1,1535.8,701.916Z" transform="translate(-1428.788 -498.059)" fill="#a8c4cc"></path></g><g id="Group_748" data-name="Group 748" transform="translate(108.979 132.808)"><path id="Path_2111" data-name="Path 2111" d="M1152.685,409.678h121.54a11.283,11.283,0,0,1,11.283,11.283V475.72A11.283,11.283,0,0,1,1274.225,487h-8.487v13.241a2.123,2.123,0,0,1-3.544,1.577L1245.759,487h-93.074A11.282,11.282,0,0,1,1141.4,475.72V420.961A11.282,11.282,0,0,1,1152.685,409.678Z" transform="translate(-1141.402 -409.678)" fill="#71b180"></path><path id="Path_2112" data-name="Path 2112" d="M1192.18,443.231l-5.043.971c1.7-5.106,3.208-5.861,8.417-5.177,3.934.516,7.935.525,12.174.776.166,2.346-.548,3.951-4.305,4.017-8.077.14-13.783,6.04-13.869,13.632-.051,4.507,2.144,7.908,6.6,8.439,4.27.509,8.674-.079,13.017-.226a12.791,12.791,0,0,1,2.569-.1c-4.253,3.735-9.05,6.21-14.812,5.849-3.822-.239-6.315-2.742-7.934-6.061-3.166-6.492-2.169-12.673,1.576-18.593.593-.938,1.269-1.825,1.907-2.736Z" transform="translate(-1146.687 -413.047)" fill="#fff"></path><path id="Path_2113" data-name="Path 2113" d="M1222.043,450.295c-.9,5.85.194,7.59,5.77,8.373a43.389,43.389,0,0,0,19.036-1.378c-1.974-2.905-2.927-5.589-.191-8.3,2.4,3.108,2.509,6.548,1.832,9.966a4.247,4.247,0,0,1-2.535,2.723c-6.8,1.833-13.754,2.459-20.672.826C1218.814,460.982,1217.4,455.832,1222.043,450.295Z" transform="translate(-1150.412 -414.225)" fill="#fff"></path><path id="Path_2114" data-name="Path 2114" d="M1266.033,427.468c0,9.058.131,17.673-.115,26.279-.047,1.617-1.6,3.191-2.451,4.784l-.915-.271c0-7.567.117-15.137-.057-22.7C1262.423,432.461,1262.836,429.789,1266.033,427.468Z" transform="translate(-1155.405 -411.735)" fill="#fff"></path><path id="Path_2115" data-name="Path 2115" d="M1196.9,457.216c.759-1.358,1.291-2.313,2.038-3.649l5.141,2.869-2.037,3.648Z" transform="translate(-1147.82 -414.753)" fill="#fff"></path><path id="Path_2116" data-name="Path 2116" d="M1238.7,471.492l-2.13,3.644-5.022-2.905,1.941-3.7Z" transform="translate(-1151.826 -416.484)" fill="#fff"></path></g><g id="Group_751" data-name="Group 751" transform="translate(517.178 252.972)"><g id="Group_749" data-name="Group 749" transform="translate(1.052)"><path id="Path_2117" data-name="Path 2117" d="M1604.168,572.527c0-13.4,9.464-26.832,21.141-26.832s21.141,13.43,21.141,26.832-9.464,24.267-21.141,24.267S1604.168,585.93,1604.168,572.527Z" transform="translate(-1604.168 -545.695)" fill="#71b180"></path><path id="Path_2118" data-name="Path 2118" d="M1625.309,545.7a15.633,15.633,0,0,1,5.427,1.02c-9.041,3.335-15.714,14.568-15.714,25.813s6.673,20.676,15.714,23.43a18.578,18.578,0,0,1-5.427.837c-11.676,0-21.141-10.864-21.141-24.267S1613.632,545.7,1625.309,545.7Z" transform="translate(-1604.168 -545.695)" fill="#33648a" opacity="0.25"></path></g><g id="Group_750" data-name="Group 750" transform="translate(0 39.191)"><path id="Path_2119" data-name="Path 2119" d="M1649.264,593.509l-3.789,34.3a8.462,8.462,0,0,1-8.411,7.534H1615.2a8.463,8.463,0,0,1-8.412-7.534l-3.789-34.3a3.152,3.152,0,0,1,3.133-3.5h40A3.152,3.152,0,0,1,1649.264,593.509Z" transform="translate(-1602.978 -590.011)" fill="#cce3eb"></path><path id="Path_2120" data-name="Path 2120" d="M1646.132,595.136h-40a3.1,3.1,0,0,0-2.759,1.758l-.374-3.385a3.152,3.152,0,0,1,3.133-3.5h40a3.152,3.152,0,0,1,3.132,3.5l-.374,3.385A3.1,3.1,0,0,0,1646.132,595.136Z" transform="translate(-1602.978 -590.011)" fill="#a8c4cc"></path><path id="Path_2121" data-name="Path 2121" d="M1606.131,590.011H1620a3.152,3.152,0,0,0-3.133,3.5l3.789,34.3a8.463,8.463,0,0,0,8.412,7.534H1615.2a8.463,8.463,0,0,1-8.412-7.534l-3.789-34.3A3.152,3.152,0,0,1,1606.131,590.011Z" transform="translate(-1602.978 -590.011)" fill="#a8c4cc"></path></g></g><g id="Group_756" data-name="Group 756" transform="translate(189.925 135.113)"><g id="Group_754" data-name="Group 754" transform="translate(86 209.808)"><g id="Group_752" data-name="Group 752" transform="translate(0 15.435)"><path id="Path_2122" data-name="Path 2122" d="M1404.879,863.229l1.435,9.914-7.543,9.652-19.132-9.366-2.072-9.066,23.815-3.6Z" transform="translate(-1335.658 -689.768)" fill="url(#linear-gradient)"></path><path id="Path_2123" data-name="Path 2123" d="M1383.957,896.752l-1.975-2.446a.921.921,0,0,0-1.417-.019l-1.984,2.326a4.139,4.139,0,0,1-3.219,1.452l-44.45-.757a2.385,2.385,0,0,1-.076-3.36c6.514-6.575,41.578-17.943,43.323-18.9s12.469,7.374,26.675-.286c0,0,2.3,11.126,2.635,18.337a5.076,5.076,0,0,1-5.134,5.357l-11.28-.192A4.072,4.072,0,0,1,1383.957,896.752Z" transform="translate(-1330.178 -691.387)" fill="#1e394c"></path><path id="Path_2124" data-name="Path 2124" d="M1484.536,673.344s18.455,20.4-15.341,42.575c-23.711,15.556-42.4,10.8-57.279,20.232-3.491,2.212-6.143,5.5-6.389,9.626l-.756,95.384-1.8.892a32.769,32.769,0,0,1-28.5.311h0l-13.459-108.831c-.482-7.5,3.572-13.827,8.217-19.736,25.843-32.874,71.6-44.014,83.185-45.913C1467.471,665.416,1484.536,673.344,1484.536,673.344Z" transform="translate(-1333.74 -667.408)" fill="#1e394c"></path></g><g id="Group_753" data-name="Group 753" transform="translate(73.927)"><path id="Path_2125" data-name="Path 2125" d="M1487.993,863.224l1.57,9.893-7.411,9.754-19.258-9.1-2.2-9.037,23.763-3.926Z" transform="translate(-1419.199 -674.339)" fill="url(#linear-gradient)"></path><path id="Path_2126" data-name="Path 2126" d="M1467.563,896.945l-2.008-2.418a.921.921,0,0,0-1.418,0l-1.951,2.352a4.137,4.137,0,0,1-3.2,1.5l-44.458-.149a2.387,2.387,0,0,1-.122-3.359c6.424-6.664,41.329-18.51,43.06-19.491s12.569,7.2,26.669-.652c0,0,2.455,11.094,2.886,18.3a5.076,5.076,0,0,1-5.059,5.427l-11.282-.038A4.068,4.068,0,0,1,1467.563,896.945Z" transform="translate(-1413.772 -675.948)" fill="#1e394c"></path><path id="Path_2127" data-name="Path 2127" d="M1548.615,653.536s22.363,24.926-9.973,53.078c-22.686,19.751-43.043,11.306-57.33,23.351-3.351,2.826-5.666,6.664-5.333,11.034l10.212,97.023-.77.5a30.739,30.739,0,0,1-29.818,2.033h0l-25.285-102.24c-1.583-7.813,1.77-15.043,5.8-21.921,22.44-38.257,57.673-61.06,69.573-64.719C1521.164,646.919,1548.615,653.536,1548.615,653.536Z" transform="translate(-1415.64 -649.955)" fill="#1e394c"></path></g><path id="Path_2128" data-name="Path 2128" d="M1424.609,733.492a44.432,44.432,0,0,1,5.21-1.809c.94-4.558,3.184-8.972,5.679-13.2a175.1,175.1,0,0,1,38.42-45.04c-8.1-1.375-12.228-3.111-14.471-5.39a152.31,152.31,0,0,0-24.275,6.584C1424.175,693.011,1424.211,722.856,1424.609,733.492Z" transform="translate(-1341.085 -652.048)" fill="#0e2a3e"></path></g><path id="Path_2129" data-name="Path 2129" d="M1489.457,504.811s32.254-4.3,45.658,20.832,33.421,123.654,15.918,126.651c-7.75,1.326-28.415,6.527-51.313,4.852-31.483-2.3-38.328-5.2-40.6-11.188l-20.057-91.814a38.828,38.828,0,0,1,15.226-32.415C1470.364,509.548,1489.457,504.811,1489.457,504.811Z" transform="translate(-1256.766 -423.331)" fill="#cce3eb"></path><path id="Path_2130" data-name="Path 2130" d="M1428.557,551.5s-.419,55.294-17.8,58.644-63.671,2.3-63.671,2.3v17.593h99.275Z" transform="translate(-1246.133 -428.762)" fill="#a8c4cc"></path><path id="Path_2131" data-name="Path 2131" d="M1465.88,518.056l-3.911-19.557,25.365-19.32,4.86,23.054S1484.192,537.435,1465.88,518.056Z" transform="translate(-1259.419 -420.399)" fill="url(#linear-gradient)"></path><path id="Path_2132" data-name="Path 2132" d="M1429.8,454.659s13.271,6.457,32.713-5.391c0,0,4.509,8.108,17.538,15.347,0,0,6.77-11.35,10.667-2.845a17.968,17.968,0,0,1,1.792,6.941c12.2-15.759,1.765-35.15-9.613-46.343l-52.893,25.777Z" transform="translate(-1255.699 -413.829)" fill="#1e394c"></path><path id="Path_2133" data-name="Path 2133" d="M1479.873,468.127s6.771-11.349,10.667-2.845c4.727,10.316-.607,16.786-7.007,16.786,0,0-5.082,26.831-29.735,24.935s-28.209-41.484-24.18-48.833c0,0,13.276,6.46,32.713-5.393C1462.33,452.777,1466.834,460.9,1479.873,468.127Z" transform="translate(-1255.514 -417.346)" fill="#faceab"></path><path id="Path_2134" data-name="Path 2134" d="M1424.5,455.912q-.067.581-.121,1.167c.086.136,19.646-.9,38.657.817a259.741,259.741,0,0,1,35.129,5.979q.044-.467.077-.934-15.671-3.469-31.921-5.9C1454.424,456.157,1439.941,455.916,1424.5,455.912Z" transform="translate(-1255.072 -417.708)" fill="#e2e2e2"></path><path id="Path_2135" data-name="Path 2135" d="M1424.457,451.5c2.139-23.221,20.391-40.524,40.767-38.646s35.159,22.222,33.02,45.443a259.939,259.939,0,0,0-35.129-5.979C1444.1,450.6,1424.544,451.635,1424.457,451.5Z" transform="translate(-1255.081 -412.712)" fill="#fff"></path><g id="Group_755" data-name="Group 755" transform="translate(0 113.539)"><path id="Path_2136" data-name="Path 2136" d="M1243.609,541.1h102.9a10.672,10.672,0,0,1,10.457,8.539l13.7,67.147H1245.98l-12.828-62.88A10.673,10.673,0,0,1,1243.609,541.1Z" transform="translate(-1232.932 -541.098)" fill="#cce3eb"></path><path id="Rectangle_404" data-name="Rectangle 404" d="M5.744,0H174.481a5.743,5.743,0,0,1,5.743,5.743V6.06a5.743,5.743,0,0,1-5.743,5.743H5.744A5.744,5.744,0,0,1,0,6.06V5.744A5.744,5.744,0,0,1,5.744,0Z" transform="translate(188.59 87.497) rotate(-180)" fill="#7fa7b0"></path><path id="Path_2137" data-name="Path 2137" d="M1247.472,626.689h125.657a5.08,5.08,0,0,0-5.08,5.08v1.645a5.08,5.08,0,0,0,5.08,5.08H1247.472a5.08,5.08,0,0,1-5.08-5.08v-1.645A5.08,5.08,0,0,1,1247.472,626.689Z" transform="translate(-1234.026 -550.996)" fill="#a8c4cc"></path></g><path id="Path_2138" data-name="Path 2138" d="M1434.238,610.361c20.034-2.334,76.239-8.067,85.871-9.064,12.147-1.257-14.243-50.266-17.175-67.022s9.845-17.384,9.845-17.384c7.211-.9,15.079,0,21.782,10.151,13.717,20.774,29,81.5,20.943,96.5a5.424,5.424,0,0,1-4.791,2.838H1434.238Z" transform="translate(-1256.212 -424.729)" fill="#cce3eb"></path><path id="Path_2139" data-name="Path 2139" d="M1434.238,610.362s72.362-4.981,87.965-7.075c12.1-1.625-13.126-51.837-16.057-68.593s10.053-16.057,10.053-16.057a31.084,31.084,0,0,1,11.3,1.061c-4.842-3.184-9.919-3.4-14.728-2.815,0,0-12.767.637-9.836,17.392s25.553,64.718,17.908,66.6C1511.439,603.2,1454.277,608.032,1434.238,610.362Z" transform="translate(-1256.212 -424.729)" fill="#a8c4cc"></path><path id="Path_2140" data-name="Path 2140" d="M1430.374,639.131h-26.993a2.549,2.549,0,0,1-2.14-3.941c2.527-3.884,6.52-9.371,9.444-10.3,1.746-.555,14.87-.066,19.688.445Z" transform="translate(-1252.347 -437.22)" fill="url(#linear-gradient)"></path><path id="Path_2141" data-name="Path 2141" d="M1429.617,458.875a21.545,21.545,0,0,0,6.114,1.526c.327,1.826.916,5.338,1.233,8.667.453,4.748-1.922,19.444-.452,19.558a42.82,42.82,0,0,0,4.522-.113s2.261,21.255,23.515,17.862c.2-.032.361-.053.551-.082a26.867,26.867,0,0,1-11.3,1.417C1429.143,505.811,1425.588,466.224,1429.617,458.875Z" transform="translate(-1255.514 -418.051)" fill="#f8b090"></path><path id="Path_2142" data-name="Path 2142" d="M1424.38,457.187l4.1,3.24.726-1.955.447-1.62Z" transform="translate(-1255.072 -417.817)" fill="#e2e2e2"></path><path id="Path_2143" data-name="Path 2143" d="M1507.534,464.838l-2.155,1.191.5-1.787Z" transform="translate(-1264.438 -418.671)" fill="#e2e2e2"></path></g><g id="Group_761" data-name="Group 761" transform="translate(0.902 327.278)"><g id="Group_757" data-name="Group 757" transform="translate(0 20.938)"><path id="Path_2144" data-name="Path 2144" d="M1072.906,790.228s-33.9-16.816-24.681-42.31,14.917-26.579-2.712-40.954-43.123-50.446-10.848-53.159,30.647,40.14,57.5,46.107S1133.659,818.163,1072.906,790.228Z" transform="translate(-1019.192 -653.681)" fill="#71b180"></path><path id="Path_2145" data-name="Path 2145" d="M1099.589,792.755c-6.512,3.018-15.265,2.724-26.683-2.527,0,0-33.9-16.816-24.681-42.31s14.917-26.579-2.712-40.954-43.123-50.447-10.848-53.159a29.673,29.673,0,0,1,8.6.461c-9.082,3.774-18.119,11.258-6.441,25.109,19.445,23.063,29.846,31.2,27.585,46.125C1062.208,740.053,1063.461,773.09,1099.589,792.755Z" transform="translate(-1019.192 -653.682)" fill="#33648a" opacity="0.25"></path></g><g id="Group_758" data-name="Group 758" transform="translate(79.081 56.576)"><path id="Path_2146" data-name="Path 2146" d="M1140.745,794.074s29.834-1.085,28.207-22.511-2.456-22.266,16.273-29.02c33.089-11.934,6.894-75.486-20.07-35.529-18.715,27.732-26.851,21.494-39.055,23.664S1087.315,803.566,1140.745,794.074Z" transform="translate(-1108.614 -693.979)" fill="#71b180"></path><path id="Path_2147" data-name="Path 2147" d="M1126.984,730.678c12.2-2.17,20.34,4.067,39.055-23.665,14.113-20.914,28-13.457,33.3.1-7.94-2.431-20-3.892-21.5,9.028-1.948,16.764-41.167,44.289-40.366,78.506-.522.056-1.024.092-1.529.131-5.7-15.048-13.237-34.567-19.684-51.2C1119.707,736.413,1123.824,731.239,1126.984,730.678Z" transform="translate(-1109.498 -693.98)" fill="#33648a" opacity="0.29"></path></g><g id="Group_759" data-name="Group 759" transform="translate(44.374)"><path id="Path_2148" data-name="Path 2148" d="M1129.291,785.726s37.021-36.207,24.409-42.309-37.428,13.832-23.6-7.73,29.938-55.148,10.818-49.858-20.507,11.1-18.141-14.014c3.061-32.482-15.052-49.226-32.138-38.648s14.646,82.179,2.848,74.45-21.562-14.239-24-4.882,33.778,46.1,20.341,39.869c-16.68-7.73-19.121,6.1-13.831,14.646S1103.254,816.645,1129.291,785.726Z" transform="translate(-1069.369 -630.006)" fill="#134e5e"></path><path id="Path_2149" data-name="Path 2149" d="M1076,757.252c-5.289-8.544-2.849-22.376,13.831-14.646,13.437,6.226-22.782-30.512-20.341-39.869s12.205-2.848,24,4.883-19.935-63.872-2.848-74.45c7.946-4.92,16.087-3.866,22.245,1.868-8.845,2.163-15.927,9.278-11.018,28.488,10.4,40.7,16.732,74.615-2.261,64.666-17.89-9.371,20.778,33.814,21.172,64.938C1098.58,805.816,1080.7,764.845,1076,757.252Z" transform="translate(-1069.369 -630.009)" fill="#1e394c" opacity="0.48"></path></g><g id="Group_760" data-name="Group 760" transform="translate(42.399 153.352)"><path id="Path_2150" data-name="Path 2150" d="M1154.667,810.026,1147.5,874.9a16,16,0,0,1-15.907,14.247h-41.352a16.005,16.005,0,0,1-15.907-14.247l-7.164-64.87a5.96,5.96,0,0,1,5.924-6.615h75.646A5.96,5.96,0,0,1,1154.667,810.026Z" transform="translate(-1067.135 -803.411)" fill="#cce3eb"></path><path id="Path_2151" data-name="Path 2151" d="M1073.1,803.411h26.228a5.96,5.96,0,0,0-5.924,6.615l7.164,64.87a16,16,0,0,0,15.907,14.246h-26.228a16,16,0,0,1-15.907-14.246l-7.164-64.87A5.96,5.96,0,0,1,1073.1,803.411Z" transform="translate(-1067.135 -803.411)" fill="#a8c4cc"></path></g></g><g id="Group_780" data-name="Group 780" transform="translate(113.735 336.814)"><g id="Group_762" data-name="Group 762" transform="translate(6.935)"><path id="Rectangle_405" data-name="Rectangle 405" d="M10.19,0H451.216a10.191,10.191,0,0,1,10.191,10.191v.564a10.19,10.19,0,0,1-10.19,10.19H10.19A10.19,10.19,0,0,1,0,10.754V10.19A10.19,10.19,0,0,1,10.19,0Z" transform="translate(461.406 20.944) rotate(-180)" fill="#598e63"></path><path id="Path_2152" data-name="Path 2152" d="M1163.633,640.788h443.382a9.012,9.012,0,0,1,9.012,9.012v2.921a8.937,8.937,0,0,1-.466,2.728,8.982,8.982,0,0,0-8.546-6.283H1163.633a8.982,8.982,0,0,0-8.546,6.283,8.907,8.907,0,0,1-.466-2.728V649.8A9.011,9.011,0,0,1,1163.633,640.788Z" transform="translate(-1154.621 -640.788)" fill="#134e5e"></path></g><g id="Group_779" data-name="Group 779" transform="translate(0 21.049)"><g id="Group_764" data-name="Group 764" transform="translate(319.189)"><g id="Group_763" data-name="Group 763"><path id="Path_2153" data-name="Path 2153" d="M1507.707,873.4h14.819l103.1-208.814H1610.8Z" transform="translate(-1507.707 -664.59)" fill="#134e5e"></path></g></g><g id="Group_766" data-name="Group 766" transform="translate(364.429)"><g id="Group_765" data-name="Group 765"><path id="Path_2154" data-name="Path 2154" d="M1676.777,873.4h-14.819l-103.1-208.814h14.819Z" transform="translate(-1558.862 -664.59)" fill="#134e5e"></path></g></g><g id="Group_768" data-name="Group 768"><g id="Group_767" data-name="Group 767"><path id="Path_2155" data-name="Path 2155" d="M1146.779,873.4H1161.6L1264.693,664.59h-14.819Z" transform="translate(-1146.779 -664.59)" fill="#134e5e"></path></g></g><g id="Group_770" data-name="Group 770" transform="translate(45.239)"><g id="Group_769" data-name="Group 769"><path id="Path_2156" data-name="Path 2156" d="M1315.848,873.4h-14.819l-103.1-208.814h14.819Z" transform="translate(-1197.934 -664.59)" fill="#134e5e"></path></g></g><g id="Group_772" data-name="Group 772" transform="translate(418.2)"><g id="Group_771" data-name="Group 771"><path id="Path_2157" data-name="Path 2157" d="M1619.665,672.863l4.085-8.273h14.819l-4.085,8.273Z" transform="translate(-1619.665 -664.59)" fill="#1a3651"></path></g></g><g id="Group_774" data-name="Group 774" transform="translate(364.429)"><g id="Group_773" data-name="Group 773"><path id="Path_2158" data-name="Path 2158" d="M1562.947,672.863l-4.084-8.273h14.819l4.084,8.273Z" transform="translate(-1558.862 -664.59)" fill="#1a3651"></path></g></g><g id="Group_776" data-name="Group 776" transform="translate(99.011)"><g id="Group_775" data-name="Group 775"><path id="Path_2159" data-name="Path 2159" d="M1258.737,672.863l4.084-8.273h14.819l-4.084,8.273Z" transform="translate(-1258.737 -664.59)" fill="#1a3651"></path></g></g><g id="Group_778" data-name="Group 778" transform="translate(45.239)"><g id="Group_777" data-name="Group 777"><path id="Path_2160" data-name="Path 2160" d="M1202.018,672.863l-4.084-8.273h14.819l4.084,8.273Z" transform="translate(-1197.934 -664.59)" fill="#1a3651"></path></g></g></g></g></g></g></svg> 